<svg xmlns="http://www.w3.org/2000/svg" xmlns:xlink="http://www.w3.org/1999/xlink" width="400" height="400" viewBox="0 0 400 400">
    <rect data-name="background" width="100%" height="100%" fill="none"/><g data-name="icon" fill="#000000" data="id:183251" transform="translate(126.0264782489928,102.0775244735059) scale(1.4795954260201636)">
    <path d="M93.6,57.2L69.8,67.8c-0.5,0.2-0.9,0.6-1.2,1.2L58.1,92.9c-1,2.3-4.7,1.6-5.7-1.2L31.7,34.4  c-0.8-2.3,1-4.2,3.3-3.3l57.4,20.5C95.2,52.5,95.9,56.2,93.6,57.2z"/><g><path d="M21.3,25.9L5.5,10.1C4.7,9.3,4.9,7.8,6,6.7s2.6-1.3,3.4-0.5L25.1,22c0.8,0.8,0.6,2.3-0.5,3.4   C23.6,26.4,22.1,26.7,21.3,25.9z"/></g><g><path d="M25.2,49.8L10.4,64.7c-0.8,0.8-2.3,0.6-3.4-0.5c-1.1-1.1-1.3-2.6-0.5-3.4L21.4,46c0.8-0.8,2.3-0.6,3.4,0.5   C25.8,47.5,26,49,25.2,49.8z"/></g><g><path d="M32.3,19V9.1c0-1.1,1.2-2,2.7-2c1.5,0,2.7,0.9,2.7,2V19c0,1.1-1.2,2-2.7,2C33.5,21,32.3,20.1,32.3,19z"/></g><g><path d="M18.1,33.1H8.2c-1.1,0-2,1.2-2,2.7s0.9,2.7,2,2.7h9.9c1.1,0,2-1.2,2-2.7S19.2,33.1,18.1,33.1z"/></g><g><path d="M45,21.9L60.7,6.3c0.8-0.8,2.3-0.6,3.4,0.5c1.1,1.1,1.3,2.6,0.5,3.4L48.9,25.8c-0.8,0.8-2.3,0.6-3.4-0.5   C44.4,24.2,44.2,22.7,45,21.9z"/></g>
</g><g data-name="business_name" fill="#e67e22" data="id:174" transform="translate(60.03012170191546,244.39423609050414) scale(0.9606717369124392)"><path d="M22.96,22.32l-15.88,0l0,7.96l13.84,0l0,3.76l-13.84,0l0,8.4l15.84,0l0,3.96l-20.12,0l0-28l20.16,0l0,3.92z M42.44,26.28l4.56,0l-8.52,20.12l-4.68,0l-8.52-20.12l4.56,0l6.28,15.56z M59.56,46.92c-6.28,0-10.72-4.2-10.72-10.56c0-6,4.12-10.6,10.36-10.6c6.52,0,10.24,4.52,10.24,10.2c0,0.6-0.04,1.08-0.12,1.68l-16.36,0c0.28,3.32,2.6,5.68,6.68,5.68c3,0,4.88-1.48,5.72-3.24l3.84,1.12c-1.24,2.72-4.4,5.72-9.64,5.72z M52.96,34.84l12.36-0.04c-0.24-3.08-2.44-5.44-6.12-5.44c-3.6,0-5.96,2.6-6.24,5.48z M84.88,25.76c5.16,0,8,3.4,8,8.84l0,11.8l-4.16,0l0-11.04c0-3.52-1.68-5.68-4.96-5.68c-3.52,0-5.8,2.68-5.8,6.72l0,10l-4.2,0l0-20.12l4.2,0l0,3c1.4-2,3.72-3.52,6.92-3.52z M109.56,42.32l1.04,3.44c-1.52,0.64-2.84,0.96-4.44,0.96c-4.32,0-6.28-2.72-6.28-6.84l0-9.88l-3.68,0l0-3.72l3.68,0l0-6.72l4.16,0l0,6.72l6.4,0l0,3.72l-6.4,0l0,9.88c0,1.96,0.96,3.08,2.88,3.08c1,0,1.72-0.2,2.64-0.64z  M138.2,46.92c-8.36,0-14.6-6.28-14.6-14.56c0-8.24,6.24-14.48,14.56-14.48c7.08,0,11.84,4.16,13.32,8.76l-4.2,1.04c-1.16-3.12-4.48-5.76-9.12-5.76c-6.16,0-10.16,4.76-10.16,10.4c0,5.68,4,10.52,10.16,10.52c4.6,0,7.96-2.52,9.08-5.68l4.2,1.08c-1.48,4.56-6.24,8.68-13.24,8.68z M165.4,46.92c-6.16,0-10.68-4.56-10.68-10.6c0-6,4.52-10.56,10.68-10.56s10.68,4.56,10.68,10.56c0,6.04-4.52,10.6-10.68,10.6z M165.4,43.12c3.84,0,6.6-2.92,6.6-6.76c0-3.88-2.76-6.8-6.6-6.8s-6.6,2.92-6.6,6.8c0,3.84,2.76,6.76,6.6,6.76z M191.52,25.76c5.16,0,8,3.4,8,8.84l0,11.8l-4.16,0l0-11.04c0-3.52-1.68-5.68-4.96-5.68c-3.52,0-5.8,2.68-5.8,6.72l0,10l-4.2,0l0-20.12l4.2,0l0,3c1.4-2,3.72-3.52,6.92-3.52z M216.04,25.76c5.16,0,8,3.4,8,8.84l0,11.8l-4.16,0l0-11.04c0-3.52-1.68-5.68-4.96-5.68c-3.52,0-5.8,2.68-5.8,6.72l0,10l-4.2,0l0-20.12l4.2,0l0,3c1.4-2,3.72-3.52,6.92-3.52z M238.92,46.92c-6.28,0-10.72-4.2-10.72-10.56c0-6,4.12-10.6,10.36-10.6c6.52,0,10.24,4.52,10.24,10.2c0,0.6-0.04,1.08-0.12,1.68l-16.36,0c0.28,3.32,2.6,5.68,6.68,5.68c3,0,4.88-1.48,5.72-3.24l3.84,1.12c-1.24,2.72-4.4,5.72-9.64,5.72z M232.32,34.84l12.36-0.04c-0.24-3.08-2.44-5.44-6.12-5.44c-3.6,0-5.96,2.6-6.24,5.48z M262.44,46.92c-6.12,0-10.56-4.6-10.56-10.6s4.44-10.56,10.52-10.56c5.4,0,8.8,3.44,9.56,6.36l-3.88,1.12c-0.56-1.84-2.72-3.72-5.64-3.72c-3.92,0-6.48,3.12-6.48,6.8c0,3.64,2.56,6.84,6.48,6.84c2.92,0,5.08-1.76,5.64-3.6l3.88,1.08c-0.76,2.92-4.16,6.28-9.52,6.28z M287.56,42.32l1.04,3.44c-1.52,0.64-2.84,0.96-4.44,0.96c-4.32,0-6.28-2.72-6.28-6.84l0-9.88l-3.68,0l0-3.72l3.68,0l0-6.72l4.16,0l0,6.72l6.4,0l0,3.72l-6.4,0l0,9.88c0,1.96,0.96,3.08,2.88,3.08c1,0,1.72-0.2,2.64-0.64z"/></g>
</svg>